<svg xmlns="http://www.w3.org/2000/svg" width="308" height="307.94" viewBox="0 0 308 307.94"><path fill="#FFF" d="M284.408 72.161c-21.852-34.84-55.959-59.09-96.047-68.27A154.356 154.356 0 0 0 153.97 0c-3.71 0-7.46.141-11.159.4C58.13 6.56-5.75 80.46.411 165.11c.36 4.979.97 10 1.82 14.93 6.18 36 25.029 68.71 53.06 92.11 27.64 23.079 62.67 35.79 98.61 35.79h.02l.07-.04 44.96-25.96v-52l-44.96-25.961-.07-.039h-.01c-23.88 0-45-17.181-49.18-41.511-.28-1.6-.48-3.22-.59-4.84-2.011-27.52 18.68-51.46 46.21-53.46a49.967 49.967 0 0 1 14.779 1.13c23.16 5.311 38.84 25.921 38.82 48.71v49.971l26.007 52 26.009 52 26.002-52 26.029-52.061v-49.91c.052-28.698-7.968-56.898-23.589-81.808z"/><circle fill="#333" cx="154.001" cy="255.943" r="26.003"/><path fill="#333" d="M284.408 72.161c-21.852-34.84-55.959-59.09-96.047-68.27A154.356 154.356 0 0 0 153.97 0c-3.71 0-7.46.141-11.159.4C58.13 6.56-5.75 80.46.411 165.11c.36 4.979.97 10 1.82 14.93 6.18 36 25.029 68.71 53.06 92.11 27.64 23.079 62.67 35.79 98.61 35.79h.02l.07-.04 44.96-25.96v-52l-44.96-25.961-.07-.039h-.01c-23.88 0-45-17.181-49.18-41.511-.28-1.6-.48-3.22-.59-4.84-2.011-27.52 18.68-51.46 46.21-53.46a49.967 49.967 0 0 1 14.779 1.13c23.16 5.311 38.84 25.921 38.82 48.71v49.971l26.007 52 26.009 52 26.002-52 26.029-52.061v-49.91c.052-28.698-7.968-56.898-23.589-81.808zm-91.457 206.317l-39.03 22.536-39.04-22.535v-45.073l39.036-22.539 39.034 22.539v45.072zm93.737-91.375v5.305c-4.045-7.239-11.779-12.137-20.66-12.137-8.889 0-16.623 4.898-20.669 12.138v-38.438c0-50.376-40.981-91.359-91.357-91.359s-91.359 40.983-91.359 91.359c0 31.102 16.138 60.363 42.292 77.066l-.008.009c.107.068.221.13.328.198.211.133.416.271.627.403l.022-.013c.983.612 1.97 1.22 2.978 1.795v45.319a134.336 134.336 0 0 1-4.176-1.587l-.007.022c-50.104-20.04-83.387-68.837-83.387-123.214 0-73.165 59.524-132.689 132.689-132.689 73.163 0 132.687 59.524 132.687 132.689v33.134zm-120.216-87.69a55.98 55.98 0 0 0-16.555-1.267c-14.913 1.084-28.511 7.91-38.288 19.221-9.776 11.312-14.561 25.752-13.474 40.63a52.39 52.39 0 0 0 .662 5.449c4.104 23.883 22.776 41.958 45.984 45.755l-32.928 19.012a81.629 81.629 0 0 1-2.709-1.603c-25.029-15.495-40.523-43.185-40.523-72.64 0-47.067 38.292-85.359 85.359-85.359s85.357 38.292 85.357 85.359v37.277c-3.41-6.597-9.393-10.978-16.208-10.978-5.114 0-9.758 2.472-13.2 6.493v-32.788c.023-26.249-17.855-48.687-43.477-54.561zm111.786 150.528h-44.593l-5.431-10.86-18.245-36.479c.531-8.981 6.342-16.332 13.161-16.332 7.158 0 13.208 8.093 13.208 17.671h12c0-9.744 7.926-17.671 17.67-17.671 9.736 0 17.66 7.927 17.66 17.671h12c0-8.161 1.729-13.948 3.156-16.547 1.342 2.444 2.951 7.707 3.137 15.105l-23.723 47.442zm20.59-69.67c-2.371 0-4.533 2.33-6.16 6.152v-32.452c0-76.474-62.216-138.689-138.687-138.689-76.474 0-138.689 62.216-138.689 138.689 0 58.835 37.271 111.44 92.746 130.901l.021-.046a137.701 137.701 0 0 0 12.154 3.67l22.563 13.024a148.22 148.22 0 0 1-83.66-33.976 148.056 148.056 0 0 1-50.993-88.523c-.813-4.714-1.4-9.54-1.748-14.346-2.863-39.343 9.812-77.495 35.689-107.43C67.964 27.31 103.89 9.247 143.23 6.386 146.871 6.13 150.484 6 153.969 6c11.095 0 22.216 1.258 33.051 3.739 38.519 8.82 71.299 32.121 92.305 65.608 14.881 23.731 22.721 50.915 22.672 78.622v27.743c-.981-.932-2.042-1.441-3.149-1.441z"/></svg>