<?xml version="1.0" encoding="utf-8"?>
<!-- Generator: Adobe Illustrator 16.0.3, SVG Export Plug-In . SVG Version: 6.00 Build 0)  -->
<!DOCTYPE svg PUBLIC "-//W3C//DTD SVG 1.1//EN" "http://www.w3.org/Graphics/SVG/1.1/DTD/svg11.dtd">
<svg version="1.1" id="Warstwa_1" xmlns="http://www.w3.org/2000/svg" xmlns:xlink="http://www.w3.org/1999/xlink" x="0px" y="0px"
	 width="34px" height="24px" viewBox="0 0 34 24" enable-background="new 0 0 34 24" xml:space="preserve">
<g>
	<path fill="#212121" d="M34,3c0,0.55-0.45,1-1,1H1C0.45,4,0,3.55,0,3V1c0-0.55,0.45-1,1-1h32c0.55,0,1,0.45,1,1V3z"/>
</g>
<g>
	<path fill="#212121" d="M34,23c0,0.55-0.45,1-1,1H1c-0.55,0-1-0.45-1-1v-2c0-0.55,0.45-1,1-1h32c0.55,0,1,0.45,1,1V23z"/>
</g>
<g>
	<path fill="#212121" d="M34,13c0,0.55-0.45,1-1,1H1c-0.55,0-1-0.45-1-1v-2c0-0.55,0.45-1,1-1h32c0.55,0,1,0.45,1,1V13z"/>
</g>
</svg>
