<?xml version="1.0" encoding="utf-8"?>
<!-- Generator: Adobe Illustrator 16.0.3, SVG Export Plug-In . SVG Version: 6.00 Build 0)  -->
<!DOCTYPE svg PUBLIC "-//W3C//DTD SVG 1.1//EN" "http://www.w3.org/Graphics/SVG/1.1/DTD/svg11.dtd">
<svg version="1.1" xmlns="http://www.w3.org/2000/svg" xmlns:xlink="http://www.w3.org/1999/xlink" x="0px" y="0px" width="308px"
	 height="307.94px" viewBox="0 0 308 307.94" enable-background="new 0 0 308 307.94" xml:space="preserve">
<g id="Reprodukcja_x5F_Werjsa_3D">
</g>
<g id="Reprodukcja_x5F_Werjsa_2D">
	<g>
		<path id="_x3C_ścieżka_x3E__Tlo_1_" fill="#FFFFFF" d="M284.408,72.161c-21.852-34.84-55.959-59.09-96.047-68.27
			c-11.271-2.58-22.841-3.891-34.391-3.891c-3.71,0-7.46,0.141-11.159,0.4c-84.681,6.16-148.561,80.06-142.4,164.71
			c0.36,4.979,0.97,10,1.82,14.93c6.18,36,25.029,68.71,53.06,92.11c27.64,23.079,62.67,35.79,98.61,35.79c0,0,0.01,0,0.02,0
			l0.07-0.04l44.96-25.96v-52l-44.96-25.961l-0.07-0.039h-0.01c-23.88,0-45-17.181-49.18-41.511c-0.28-1.6-0.48-3.22-0.59-4.84
			c-2.011-27.52,18.68-51.46,46.21-53.46c1.205-0.088,2.414-0.131,3.622-0.131c3.75,0,7.496,0.422,11.157,1.261
			c23.16,5.311,38.84,25.921,38.82,48.71v49.971l26.007,52l26.009,52l26.002-52l26.029-52.061v-49.91
			C308.049,125.271,300.029,97.071,284.408,72.161z"/>
		<circle id="_x3C_ścieżka_x3E__Orkag_1_" fill="#333333" cx="154.001" cy="255.943" r="26.003"/>
		<path id="_x3C_ścieżka_złożona_x3E__Linie_1_" fill="#333333" d="M284.408,72.161c-21.852-34.84-55.959-59.09-96.047-68.27
			c-11.271-2.58-22.841-3.891-34.391-3.891c-3.71,0-7.46,0.141-11.159,0.4c-84.681,6.16-148.561,80.06-142.4,164.71
			c0.36,4.979,0.97,10,1.82,14.93c6.18,36,25.029,68.71,53.06,92.11c27.64,23.079,62.67,35.79,98.61,35.79c0,0,0.01,0,0.02,0
			l0.07-0.04l44.96-25.96v-52l-44.96-25.961l-0.07-0.039h-0.01c-23.88,0-45-17.181-49.18-41.511c-0.28-1.6-0.48-3.22-0.59-4.84
			c-2.011-27.52,18.68-51.46,46.21-53.46c1.205-0.088,2.414-0.131,3.622-0.131c3.75,0,7.496,0.422,11.157,1.261
			c23.16,5.311,38.84,25.921,38.82,48.71v49.971l26.007,52l26.009,52l26.002-52l26.029-52.061v-49.91
			C308.049,125.271,300.029,97.071,284.408,72.161z M192.951,278.478l-39.03,22.536l-39.04-22.535v-45.073l39.036-22.539
			l39.034,22.539V278.478z M286.688,187.103v5.305c-4.045-7.239-11.779-12.137-20.66-12.137c-8.889,0-16.623,4.898-20.669,12.138
			v-5.303v-33.135c0-50.376-40.981-91.359-91.357-91.359s-91.359,40.983-91.359,91.359c0,31.102,16.138,60.363,42.292,77.066
			l-0.008,0.009c0.107,0.068,0.221,0.13,0.328,0.198c0.211,0.133,0.416,0.271,0.627,0.403l0.022-0.013
			c0.983,0.612,1.97,1.22,2.978,1.795v45.319c-1.401-0.509-2.796-1.033-4.176-1.587l-0.007,0.022
			c-50.104-20.04-83.387-68.837-83.387-123.214c0-73.165,59.524-132.689,132.689-132.689c73.163,0,132.687,59.524,132.687,132.689
			V187.103z M166.472,99.413C162.383,98.475,158.178,98,153.974,98c-1.349,0-2.714,0.049-4.057,0.146
			c-14.913,1.084-28.511,7.91-38.288,19.221c-9.776,11.312-14.561,25.752-13.474,40.63c0.122,1.805,0.347,3.646,0.662,5.449
			c4.104,23.883,22.776,41.958,45.984,45.755l-32.928,19.012c-0.913-0.519-1.818-1.05-2.709-1.603
			c-25.029-15.495-40.523-43.185-40.523-72.64c0-47.067,38.292-85.359,85.359-85.359s85.357,38.292,85.357,85.359v37.277
			c-3.41-6.597-9.393-10.978-16.208-10.978c-5.114,0-9.758,2.472-13.2,6.493v-32.788
			C209.972,127.725,192.094,105.287,166.472,99.413z M278.258,249.941h-44.593l-5.431-10.86l-18.245-36.479
			c0.531-8.981,6.342-16.332,13.161-16.332c7.158,0,13.208,8.093,13.208,17.671h3h6h3c0-9.744,7.926-17.671,17.67-17.671
			c9.736,0,17.66,7.927,17.66,17.671h3h6h3c0-8.161,1.729-13.948,3.156-16.547c1.342,2.444,2.951,7.707,3.137,15.105
			L278.258,249.941z M298.848,180.271c-2.371,0-4.533,2.33-6.16,6.152v-32.452c0-76.474-62.216-138.689-138.687-138.689
			c-76.474,0-138.689,62.216-138.689,138.689c0,58.835,37.271,111.44,92.746,130.901l0.021-0.046
			c3.974,1.399,8.025,2.632,12.154,3.67l22.563,13.024c-30.597-2.322-59.953-14.18-83.66-33.976
			c-26.945-22.493-45.054-53.931-50.993-88.523c-0.813-4.714-1.4-9.54-1.748-14.346c-2.863-39.343,9.812-77.495,35.689-107.43
			c25.88-29.935,61.806-47.998,101.146-50.859c3.641-0.256,7.254-0.386,10.739-0.386c11.095,0,22.216,1.258,33.051,3.739
			c38.519,8.82,71.299,32.121,92.305,65.608c14.881,23.731,22.721,50.915,22.672,78.622v27.743
			C301.016,180.78,299.955,180.271,298.848,180.271z"/>
	</g>
</g>
<g id="Typografia">
	<g id="Wersja_Mniejsza_x5F_Krzywe">
	</g>
	<g id="Wersja_Mniejsza" display="none">
	</g>
	<g id="Wersja_Wieksza" display="none">
	</g>
</g>
<g id="Linie_pomocnicze">
</g>
</svg>
